<?xml version="1.0" encoding="UTF-8" standalone="no"?>
<svg
   xmlns:dc="http://purl.org/dc/elements/1.1/"
   xmlns:cc="http://creativecommons.org/ns#"
   xmlns:rdf="http://www.w3.org/1999/02/22-rdf-syntax-ns#"
   xmlns:svg="http://www.w3.org/2000/svg"
   xmlns="http://www.w3.org/2000/svg"
   xmlns:sodipodi="http://sodipodi.sourceforge.net/DTD/sodipodi-0.dtd"
   xmlns:inkscape="http://www.inkscape.org/namespaces/inkscape"
   width="100"
   height="125"
   viewBox="0 0 74.999947 93.750291"
   version="1.1"
   id="svg3"
   sodipodi:docname="LesenLogoKursD.svg"
   inkscape:version="0.92.1 r15371"
   inkscape:export-filename="C:\Sascha\arbeit\Projekte\language College\Medien\Webbilder\Icons\kursicons\FortbildungLogoKursD.png"
   inkscape:export-xdpi="96"
   inkscape:export-ydpi="96">
  <metadata
     id="metadata9">
    <rdf:RDF>
      <cc:Work
         rdf:about="">
        <dc:format>image/svg+xml</dc:format>
        <dc:type
           rdf:resource="http://purl.org/dc/dcmitype/StillImage" />
        <dc:title></dc:title>
      </cc:Work>
    </rdf:RDF>
  </metadata>
  <defs
     id="defs7" />
  <sodipodi:namedview
     pagecolor="#ffffff"
     bordercolor="#666666"
     borderopacity="1"
     objecttolerance="10"
     gridtolerance="10"
     guidetolerance="10"
     inkscape:pageopacity="0"
     inkscape:pageshadow="2"
     inkscape:window-width="1366"
     inkscape:window-height="705"
     id="namedview5"
     showgrid="false"
     inkscape:zoom="2.0339984"
     inkscape:cx="10.634042"
     inkscape:cy="49.651296"
     inkscape:window-x="-8"
     inkscape:window-y="-8"
     inkscape:window-maximized="1"
     inkscape:current-layer="flowRoot830"
     units="px" />
  <g
     aria-label="1"
     transform="matrix(0.11249575,0,0,0.11249575,-6.9899432,-63.485999)"
     style="font-style:normal;font-weight:normal;font-size:40px;line-height:1.25;font-family:sans-serif;letter-spacing:0px;word-spacing:0px;fill:#d8d5d7;fill-opacity:1;stroke:#000000;stroke-opacity:1"
     id="flowRoot830">
    <path
       d="M 102.82356,1342.1884 V 1205.2811 724.47562 618.53542 c 0.0492,-29.40252 18.97146,-39.0675 45.63575,-39.1164 h 423.76082 70.08348 c 11.55564,0 27.00657,-0.91273 37.48653,4.368 17.27641,8.736 21.15541,25.23006 21.18804,42.89765 v 572.07703 107.5701 c 0,14.31 1.67875,39.7031 -3.84647,52.1552 -6.79645,15.3369 -16.15183,18.0749 -30.38041,22.8178 v 0 l -386.27423,1.6298 H 158.23841 143.89199 l -8.47146,-3.2596 v 0 c -21.79109,-1.0757 -32.56439,-16.9178 -32.59697,-37.4866 z M 137.05037,654.39208 V 1281.8841 H 665.12146 V 654.39208 Z m 272.18479,701.55232 c 17.06454,-4.4821 23.7306,-28.0497 12.40314,-41.3004 -7.72542,-9.0131 -17.8305,-9.1598 -28.7016,-7.6766 -32.4177,10.4636 -17.48832,57.876 16.29846,48.977 z"
       id="Auswahl"
       inkscape:connector-curvature="0"
       style="fill:#ffffff;fill-opacity:1;stroke:#000000;stroke-width:1.6298492"
       sodipodi:nodetypes="ccccccscccscccccccccccccccccc" />
    <path
       d="m 290.92101,787.04685 c 0,0 19.41201,0.88235 19.41201,0.88235 17.37373,0.20291 38.86811,5.56765 52.9418,15.90022 6.59125,4.8353 20.24141,19.48253 22.49145,27.33566 0.52942,1.844 0.45,4.24413 0.45,6.1764 0,0 0,239.12072 0,239.12072 0,0 -15.00017,-6.812 -15.00017,-6.812 -8.25892,-3.4941 -16.86197,-6.2206 -25.58855,-8.2942 -31.71213,-7.5264 -54.60948,-6.0707 -86.47163,-6.0707 0,0 0,-268.23845 0,-268.23845 0,0 31.76509,0 31.76509,0 z m 123.6809,50.29463 c -0.15001,-1.95881 -0.22943,-4.28812 0,-6.1764 1.95002,-6.0795 10.38541,-15.82971 14.85016,-20.29436 14.71783,-14.7179 31.7298,-20.24156 52.05944,-22.12091 0,0 8.82364,-0.82061 8.82364,-0.82061 0,0 19.41201,-0.88235 19.41201,-0.88235 0,0 24.70614,0 24.70614,0 1.87945,0.0176 4.86187,-0.22945 6.1589,1.41178 1.65889,2.1 0.56475,11.40889 0.80297,14.47071 0,0 0,35.29463 0,35.29463 0,0 0,24.70607 0,24.70607 0,0 0,72.35382 0,72.35382 0,0 0,36.17698 0,36.17698 0,0 0,52.94186 0,52.94186 0,0 0,27.3003 0,27.3003 -0.62645,4.2883 -4.50007,3.5735 -7.84423,3.5823 -30.70622,0.062 -51.49471,-1.0676 -82.05977,6.9531 -12.14133,3.1942 -16.90608,5.2059 -28.23562,10.1825 0,0 -8.67364,4.0413 -8.67364,4.0413 0,0 0,-239.12072 0,-239.12072 z m 178.08738,-22.05904 c 3.5295,0.0147 7.306,-0.0264 10.58837,1.45592 3.11475,1.41178 5.77071,4.2 7.05008,7.36782 1.02352,2.52358 0.89119,5.27647 0.89119,7.94124 0,0 0,226.76738 0,226.76738 0,0 0,64.4126 0,64.4126 -0.0176,13.1031 -6.19417,16.7473 -18.52964,16.7648 0,0 -134.11921,0 -134.11921,0 -12.55604,0.026 -7.64128,5.0119 -22.0591,16.1649 -9.78541,7.5708 -23.80616,12.0002 -36.1769,12.0002 -12.12367,0 -26.54147,-4.4824 -36.1769,-11.859 -13.97663,-10.7031 -9.60894,-16.2795 -22.05908,-16.3061 0,0 -117.35435,0 -117.35435,0 0,0 -15.88253,0 -15.88253,0 -7.85304,-0.015 -16.06784,-0.8647 -18.83847,-9.7059 -0.67058,-2.1265 -0.57354,-4.8265 -0.57354,-7.0589 0,0 0,-236.47348 0,-236.47348 0,0 0,-55.58884 0,-55.58884 0.0617,-12.75895 7.04126,-15.86489 18.52965,-15.88264 0,0 22.94144,0 22.94144,0 0,0 0,206.47306 0,206.47306 0,0 0,37.0593 0,37.0593 0,5.356 -0.7853,13.0326 1.96767,17.6384 4.32358,7.2354 11.61191,7.9414 19.20906,7.9502 0,0 51.17707,0 51.17707,0 0,0 8.82363,0.8118 8.82363,0.8118 20.62968,1.6499 39.83871,5.9913 58.23599,15.7591 6.13243,3.2557 11.54132,7.3676 16.76492,11.9118 3.65299,3.1854 6.38831,6.6089 11.47072,7.3942 7.32362,1.1294 11.7619,-4.6678 16.7649,-8.8855 8.01187,-6.7412 15.92666,-11.4972 25.58855,-15.5118 34.41217,-14.2768 72.1332,-11.4267 108.53071,-11.4796 14.39135,-0.026 21.15026,-5.4707 21.17671,-20.2943 0,0 0,-248.82666 0,-248.82666 0,0 22.05906,0 22.05906,0 z"
       id="Auswahl-8"
       inkscape:connector-curvature="0"
       style="fill:#ffffff;stroke:#000000;stroke-width:0.88236338;fill-opacity:1" />
  </g>
</svg>
