<?xml version="1.0" encoding="UTF-8" standalone="no"?>
<svg
   xmlns:dc="http://purl.org/dc/elements/1.1/"
   xmlns:cc="http://creativecommons.org/ns#"
   xmlns:rdf="http://www.w3.org/1999/02/22-rdf-syntax-ns#"
   xmlns:svg="http://www.w3.org/2000/svg"
   xmlns="http://www.w3.org/2000/svg"
   xmlns:sodipodi="http://sodipodi.sourceforge.net/DTD/sodipodi-0.dtd"
   xmlns:inkscape="http://www.inkscape.org/namespaces/inkscape"
   width="100"
   height="125"
   viewBox="0 0 74.999947 93.750291"
   version="1.1"
   id="svg3"
   sodipodi:docname="schreibenLogoKursD.svg"
   inkscape:version="0.92.1 r15371"
   inkscape:export-filename="C:\Sascha\arbeit\Projekte\language College\Medien\Webbilder\Icons\kursicons\FortbildungLogoKursD.png"
   inkscape:export-xdpi="96"
   inkscape:export-ydpi="96">
  <metadata
     id="metadata9">
    <rdf:RDF>
      <cc:Work
         rdf:about="">
        <dc:format>image/svg+xml</dc:format>
        <dc:type
           rdf:resource="http://purl.org/dc/dcmitype/StillImage" />
        <dc:title></dc:title>
      </cc:Work>
    </rdf:RDF>
  </metadata>
  <defs
     id="defs7" />
  <sodipodi:namedview
     pagecolor="#ffffff"
     bordercolor="#666666"
     borderopacity="1"
     objecttolerance="10"
     gridtolerance="10"
     guidetolerance="10"
     inkscape:pageopacity="0"
     inkscape:pageshadow="2"
     inkscape:window-width="1366"
     inkscape:window-height="705"
     id="namedview5"
     showgrid="false"
     inkscape:zoom="2.0339984"
     inkscape:cx="10.634042"
     inkscape:cy="49.651296"
     inkscape:window-x="-8"
     inkscape:window-y="-8"
     inkscape:window-maximized="1"
     inkscape:current-layer="flowRoot830"
     units="px" />
  <g
     aria-label="1"
     transform="matrix(0.11249575,0,0,0.11249575,-6.9899432,-63.485999)"
     style="font-style:normal;font-weight:normal;font-size:40px;line-height:1.25;font-family:sans-serif;letter-spacing:0px;word-spacing:0px;fill:#d8d5d7;fill-opacity:1;stroke:#000000;stroke-opacity:1"
     id="flowRoot830">
    <path
       d="M 102.82356,1342.1884 V 1205.2811 724.47562 618.53542 c 0.0492,-29.40252 18.97146,-39.0675 45.63575,-39.1164 h 423.76082 70.08348 c 11.55564,0 27.00657,-0.91273 37.48653,4.368 17.27641,8.736 21.15541,25.23006 21.18804,42.89765 v 572.07703 107.5701 c 0,14.31 1.67875,39.7031 -3.84647,52.1552 -6.79645,15.3369 -16.15183,18.0749 -30.38041,22.8178 v 0 l -386.27423,1.6298 H 158.23841 143.89199 l -8.47146,-3.2596 v 0 c -21.79109,-1.0757 -32.56439,-16.9178 -32.59697,-37.4866 z M 137.05037,654.39208 V 1281.8841 H 665.12146 V 654.39208 Z m 272.18479,701.55232 c 17.06454,-4.4821 23.7306,-28.0497 12.40314,-41.3004 -7.72542,-9.0131 -17.8305,-9.1598 -28.7016,-7.6766 -32.4177,10.4636 -17.48832,57.876 16.29846,48.977 z"
       id="Auswahl"
       inkscape:connector-curvature="0"
       style="fill:#ffffff;fill-opacity:1;stroke:#000000;stroke-width:1.6298492"
       sodipodi:nodetypes="ccccccscccscccccccccccccccccc" />
    <path
       d="m 383.58905,762.99271 c 2.98081,0.45852 5.55515,4.07515 7.38948,6.26384 0,0 13.5908,17.71807 13.5908,17.71807 14.54966,19.77126 27.33794,40.45968 39.94904,61.49215 4.64838,7.74379 13.88262,22.085 16.20682,30.22497 0,0 -33.35166,16.67574 -33.35166,16.67574 -9.35931,-16.43609 -6.84752,-18.89579 -16.67584,-16.67574 0,0 -4.16895,-11.46469 -4.16895,-11.46469 0,0 5.2112,-2.08454 5.2112,-2.08454 0,0 -13.08011,-31.26705 -13.08011,-31.26705 0,0 -18.86453,-51.0698 -18.86453,-51.0698 0,0 -4.53373,-16.67587 -4.53373,-16.67587 2.19912,-1.24017 5.72189,-3.54359 8.32748,-3.13708 z m 32.05929,154.2618 c 0,0 -12.37139,-23.97145 -12.37139,-23.97145 0,0 -14.03896,-28.14055 -14.03896,-28.14055 -1.74054,-5.46128 2.6056,-7.67088 5.59683,-6.17002 2.90785,1.44871 8.64017,14.14325 10.4745,17.6347 0,0 25.97261,51.06967 25.97261,51.06967 8.16073,16.31117 16.17555,25.57659 2.34502,26.05601 0,0 -17.97861,-36.47836 -17.97861,-36.47836 z m 40.9079,-30.22497 c 0,0 20.12563,40.64732 20.12563,40.64732 0,0 36.65555,75.04124 36.65555,75.04124 0,0 31.80916,65.6611 31.80916,65.6611 -6.96217,-0.6253 -11.20409,-3.012 -17.71808,-5.0861 -3.6791,-1.1672 -7.97313,-2.272 -10.34943,-5.5655 0,0 -18.05158,-36.2491 -18.05158,-36.2491 0,0 -34.24799,-68.78784 -34.24799,-68.78784 0,0 -18.09328,-36.47835 -18.09328,-36.47835 -3.06419,-6.26384 -7.30609,-13.13228 -8.8903,-19.80263 0,0 18.76032,-9.38014 18.76032,-9.38014 z m 51.24689,46.90084 c 0,0 14.41417,14.49749 14.41417,14.49749 0,0 16.67584,13.27811 16.67584,13.27811 14.88316,11.47514 30.82943,23.71103 41.97098,38.92772 12.20461,16.6759 18.9896,44.5348 24.73233,64.6188 2.36589,8.2857 5.16951,20.6571 5.2112,29.1827 0,0 -1.33407,17.7181 -1.33407,17.7181 0,0 1.33407,13.5491 1.33407,13.5491 0.0417,9.9012 0.14591,20.0213 -9.38015,25.8996 -3.35601,2.0741 -5.73232,2.5952 -9.38015,1.1986 3.33516,-2.1158 6.3368,-4.1585 8.79649,-7.3374 12.21504,-15.769 -3.88754,-36.0302 -14.30994,-47.9014 -5.47177,-6.2534 -9.34889,-9.651 -16.37359,-14.0388 -3.92925,-2.4493 -8.85903,-4.294 -11.66264,-8.0357 -4.06475,-5.43 -8.66101,-18.4685 -11.98577,-24.8261 0,0 -31.559,-63.5766 -31.559,-63.5766 0,0 -22.91885,-46.90084 -22.91885,-46.90084 -3.75205,-7.61873 -12.68404,-24.0965 -14.63303,-31.26718 16.46738,5.75319 19.42734,12.87173 30.40211,25.0138 z m -72.49816,-19.74003 c 0,0 4.836,7.23313 4.836,7.23313 0,0 8.3379,16.67586 8.3379,16.67586 0,0 23.67969,47.94292 23.67969,47.94292 0,0 16.70708,34.39394 16.70708,34.39394 -5.17992,1.3758 -10.06803,1.8031 -14.58091,5.0028 -6.20133,4.4087 -10.64127,13.6429 -6.28471,20.876 2.15744,3.575 8.81735,7.6709 12.52771,9.6721 14.90404,8.0564 30.76691,13.6115 46.90077,18.6247 18.12455,5.6281 35.96768,10.5057 50.97592,22.9605 10.88098,9.0362 16.31105,17.3846 19.05214,31.2568 1.58421,7.9731 0.0104,16.2694 -7.51454,20.7614 -6.4723,3.8667 -14.6122,3.2935 -21.86618,3.2101 0,0 -18.76031,-2.0741 -18.76031,-2.0741 -2.58475,-0.052 -6.94131,-0.2606 -9.16129,1.0527 -4.99233,2.96 -4.9819,13.4136 -13.80967,19.198 -7.52496,4.9298 -23.10643,4.0231 -27.95286,-4.6484 -3.17883,-5.6697 -1.98025,-11.6627 -1.18814,-17.6972 -13.70545,6.7642 -26.03515,15.8421 -40.64733,20.8449 -3.89799,1.334 -11.66267,4.0542 -15.6336,3.6374 -7.24356,-0.7609 -10.68296,-9.9639 -11.86068,-16.1443 -1.01098,-5.2946 0.19802,-10.0889 -6.89963,-9.3177 -9.61987,1.0319 -19.5003,3.7104 -29.1827,1.2298 -3.52277,-0.9067 -8.0044,-2.3971 -9.95338,-5.6801 -1.44872,-2.4597 -1.46956,-5.3571 -1.51125,-8.1191 -0.0626,-5.3779 -0.25014,-11.1103 3.56446,-15.4148 4.90894,-5.5446 14.15361,-6.4618 20.40704,-10.6412 0,0 -21.88702,-1.9907 -21.88702,-1.9907 0,0 -30.22495,-2.2199 -30.22495,-2.2199 0,0 -9.38015,0 -9.38015,0 -15.96709,-1.6572 -42.71098,-6.1493 -58.36539,-9.8596 0,0 -45.85854,-16.4153 -45.85854,-16.4153 -10.18266,-3.3352 -20.65718,-5.4822 -31.26715,-6.7432 -4.84644,-0.5733 -10.44324,0.6254 -14.36206,-2.8245 -4.73179,-4.1793 -5.4301,-15.4252 -5.44051,-21.4389 -0.0311,-18.4893 1.13604,-36.8849 3.42898,-55.23863 0,0 5.95116,-37.52069 5.95116,-37.52069 6.73287,1.63635 13.94519,1.04234 20.84479,1.04234 18.16625,0 22.54365,-0.20855 40.64732,-2.68902 0,0 9.38017,-0.89625 9.38017,-0.89625 0,0 15.63361,-3.24149 15.63361,-3.24149 0,0 43.77403,-9.16127 43.77403,-9.16127 0,0 33.35166,-7.09763 33.35166,-7.09763 0,0 31.26718,-8.06693 31.26718,-8.06693 0,0 14.58093,-3.90841 14.58093,-3.90841 5.32585,-0.32301 6.96215,3.84595 9.00494,7.96278 0,0 11.25619,21.88704 11.25619,21.88704 3.3977,5.85733 6.93089,10.50572 14.04939,6.01361 7.42073,-4.69007 4.2419,-9.3071 1.24026,-15.39375 0,0 -13.65334,-27.03575 -13.65334,-27.03575 0,0 5.84697,0 5.84697,0 z m 140.06654,245.65575 c 2.48052,-0.013 6.91005,-1.1151 9.06748,0 2.75151,1.0736 3.47066,5.9095 4.01262,8.588 2.77237,13.7263 0.55238,11.6314 1.2611,18.7604 0,0 0,7.2956 0,7.2956 -3.86669,-2.0427 -3.99177,-3.0329 -7.2227,-5.8678 0,0 -6.94132,-5.701 -6.94132,-5.701 -5.25289,-5.3467 -12.38181,-17.0198 -15.81076,-23.8673 6.0033,0.7921 9.40098,1.3758 15.63358,0.7921 z"
       id="Auswahl-6"
       inkscape:connector-curvature="0"
       style="fill:#ffffff;stroke:#000000;stroke-width:1.04223931;fill-opacity:1" />
  </g>
</svg>
