<?xml version="1.0" encoding="UTF-8" standalone="no"?>
<svg
   xmlns:dc="http://purl.org/dc/elements/1.1/"
   xmlns:cc="http://creativecommons.org/ns#"
   xmlns:rdf="http://www.w3.org/1999/02/22-rdf-syntax-ns#"
   xmlns:svg="http://www.w3.org/2000/svg"
   xmlns="http://www.w3.org/2000/svg"
   xmlns:sodipodi="http://sodipodi.sourceforge.net/DTD/sodipodi-0.dtd"
   xmlns:inkscape="http://www.inkscape.org/namespaces/inkscape"
   width="100"
   height="125"
   viewBox="0 0 74.999947 93.750291"
   version="1.1"
   id="svg3"
   sodipodi:docname="sprechenLogoKursD.svg"
   inkscape:version="0.92.1 r15371"
   inkscape:export-filename="C:\Sascha\arbeit\Projekte\language College\Medien\Webbilder\Icons\kursicons\schreiben.png"
   inkscape:export-xdpi="96"
   inkscape:export-ydpi="96">
  <metadata
     id="metadata9">
    <rdf:RDF>
      <cc:Work
         rdf:about="">
        <dc:format>image/svg+xml</dc:format>
        <dc:type
           rdf:resource="http://purl.org/dc/dcmitype/StillImage" />
        <dc:title></dc:title>
      </cc:Work>
    </rdf:RDF>
  </metadata>
  <defs
     id="defs7" />
  <sodipodi:namedview
     pagecolor="#ffffff"
     bordercolor="#666666"
     borderopacity="1"
     objecttolerance="10"
     gridtolerance="10"
     guidetolerance="10"
     inkscape:pageopacity="0"
     inkscape:pageshadow="2"
     inkscape:window-width="1366"
     inkscape:window-height="705"
     id="namedview5"
     showgrid="false"
     inkscape:zoom="2.0339984"
     inkscape:cx="10.634042"
     inkscape:cy="49.651296"
     inkscape:window-x="-8"
     inkscape:window-y="-8"
     inkscape:window-maximized="1"
     inkscape:current-layer="flowRoot830"
     units="px" />
  <g
     aria-label="1"
     transform="matrix(0.11249575,0,0,0.11249575,-6.9899432,-63.485999)"
     style="font-style:normal;font-weight:normal;font-size:40px;line-height:1.25;font-family:sans-serif;letter-spacing:0px;word-spacing:0px;fill:#d8d5d7;fill-opacity:1;stroke:#000000;stroke-opacity:1"
     id="flowRoot830">
    <path
       d="M 102.82356,1342.1884 V 1205.2811 724.47562 618.53542 c 0.0492,-29.40252 18.97146,-39.0675 45.63575,-39.1164 h 423.76082 70.08348 c 11.55564,0 27.00657,-0.91273 37.48653,4.368 17.27641,8.736 21.15541,25.23006 21.18804,42.89765 v 572.07703 107.5701 c 0,14.31 1.67875,39.7031 -3.84647,52.1552 -6.79645,15.3369 -16.15183,18.0749 -30.38041,22.8178 v 0 l -386.27423,1.6298 H 158.23841 143.89199 l -8.47146,-3.2596 v 0 c -21.79109,-1.0757 -32.56439,-16.9178 -32.59697,-37.4866 z M 137.05037,654.39208 V 1281.8841 H 665.12146 V 654.39208 Z m 272.18479,701.55232 c 17.06454,-4.4821 23.7306,-28.0497 12.40314,-41.3004 -7.72542,-9.0131 -17.8305,-9.1598 -28.7016,-7.6766 -32.4177,10.4636 -17.48832,57.876 16.29846,48.977 z"
       id="Auswahl"
       inkscape:connector-curvature="0"
       style="fill:#ffffff;fill-opacity:1;stroke:#000000;stroke-width:1.6298492"
       sodipodi:nodetypes="ccccccscccscccccccccccccccccc" />
    <path
       d="m 514.55826,920.04813 c 0,0 -55.98814,-2.5449 -55.98814,-2.5449 0,0 -20.35932,-1.27249 -20.35932,-1.27249 0,0 -34.35636,-1.38694 -34.35636,-1.38694 0,0 -12.72458,-1.20885 -12.72458,-1.20885 0,0 -17.81439,0 -17.81439,0 0,0 -11.45212,-1.20884 -11.45212,-1.20884 -3.48655,-0.12722 -10.45961,-0.0383 -12.63551,-3.27024 -1.53967,-2.26494 -0.43265,-6.89668 0,-9.4671 0,0 4.89895,-25.44909 4.89895,-25.44909 0,0 15.2695,-81.43729 15.2695,-81.43729 0,0 4.65719,-24.17668 4.65719,-24.17668 0.58534,-2.65943 1.45061,-8.76713 3.05391,-10.71407 2.08682,-2.5067 7.15121,-2.87575 10.20511,-3.21927 0,0 22.90424,-1.69243 22.90424,-1.69243 0,0 95.43433,-8.66544 95.43433,-8.66544 0,0 17.81439,-2.43029 17.81439,-2.43029 0,0 11.45212,0 11.45212,0 0,0 24.17671,-2.59586 24.17671,-2.59586 6.97306,-0.31809 15.57486,-3.29568 20.85556,3.27024 2.5322,3.15562 1.14523,8.27095 0.71258,12.05013 0,0 -4.93713,30.53896 -4.93713,30.53896 0,0 -4.83535,31.81138 -4.83535,31.81138 0,0 -9.59432,63.62291 -9.59432,63.62291 0,0 -6.01873,41.99106 -6.01873,41.99106 0,0 -40.71864,-2.5449 -40.71864,-2.5449 z M 546.3697,751.96928 c 0,0 -59.80552,4.04638 -59.80552,4.04638 0,0 -22.90422,2.31592 -22.90422,2.31592 0,0 -58.53306,4.98802 -58.53306,4.98802 0,0 -19.08687,1.48872 -19.08687,1.48872 0,0 -8.33459,45.80845 -8.33459,45.80845 0,0 -7.32936,40.71865 -7.32936,40.71865 0,0 -8.51273,45.80852 -8.51273,45.80852 0,0 21.63177,1.27241 21.63177,1.27241 0,0 16.54195,0 16.54195,0 0,0 24.1767,1.27242 24.1767,1.27242 0,0 21.63178,1.27249 21.63178,1.27249 0,0 25.44915,0 25.44915,0 0,0 21.63178,1.27241 21.63178,1.27241 0,0 24.1767,1.27256 24.1767,1.27256 0,0 19.08686,0 19.08686,0 0,0 5.99328,-40.71872 5.99328,-40.71872 0,0 12.17742,-80.1648 12.17742,-80.1648 0,0 4.73355,-31.81138 4.73355,-31.81138 0,0 -12.72459,1.15795 -12.72459,1.15795 z m -290.12032,12.83904 c 25.50003,0.12729 40.99857,21.75907 40.71862,45.80845 -0.20359,17.11457 -11.10855,31.86234 -26.72162,38.58092 -5.05167,2.16317 -13.58981,3.60108 -19.08688,3.29568 -42.09283,-2.40492 -55.69548,-53.53232 -26.67068,-78.17974 5.7897,-4.92437 10.56141,-6.90944 17.7635,-8.84354 4.75903,-0.76354 9.1999,-0.68713 13.99706,-0.66177 z m 234.51392,11.18489 c 9.2635,-7.77467 23.26054,-9.19982 33.97463,-3.75366 16.23655,8.23274 14.92592,29.19007 0,38.09726 -10.10332,6.01877 -17.1909,2.91395 -22.90424,4.83537 -6.22233,2.11228 -9.09808,7.63478 -16.54195,5.62427 0,0 8.9072,-10.17968 8.9072,-10.17968 -13.83161,-7.60926 -15.58761,-24.41843 -3.43564,-34.62356 z m -94.40363,79.14684 c 9.07263,-6.33685 30.94618,-8.25819 37.3848,-16.66919 4.82262,-6.29865 -0.27994,-12.44463 -1.84505,-18.94689 -3.09208,-12.83912 -2.25226,-28.01951 10.12875,-35.62878 3.09207,-1.89597 7.82561,-3.32104 11.45212,-3.55011 4.27546,-0.2672 9.12353,0.96701 12.67368,3.39745 12.6355,8.63992 7.03668,27.40871 0.89072,38.32641 -2.73578,4.87349 -8.30916,10.77773 -4.73354,16.5801 5.62427,9.18715 32.29497,10.8795 38.69544,17.3308 3.76648,3.79194 3.35929,9.53075 3.372,14.44245 0,0 0,22.90426 0,22.90426 0,0 -25.44915,0 -25.44915,0 0,0 -19.08686,-1.27249 -19.08686,-1.27249 0,0 -20.35932,0 -20.35932,0 0,0 -15.26949,-1.22152 -15.26949,-1.22152 0,0 -20.35933,0 -20.35933,0 0,0 -19.08686,-1.32337 -19.08686,-1.32337 0.69985,-8.53823 4.51722,-29.43199 11.59209,-34.36912 z M 234.61761,1081.6502 c -18.62881,-0.229 -35.69249,-12.3937 -40.8205,-30.539 -3.38469,-12.012 -2.44312,-24.5457 -2.44312,-36.9013 0,0 0,-54.71566 0,-54.71566 0,0 0,-20.35924 0,-20.35924 0,0 0,-25.44916 0,-25.44916 0,-20.53747 0.71266,-42.88182 24.17675,-50.77103 4.65719,-1.55237 7.9401,-1.38703 12.72458,-1.39972 0,0 54.71565,0 54.71565,0 4.28818,0.0635 7.62203,0.17811 11.40122,2.55767 10.48505,6.60404 18.34884,35.06893 22.95514,47.06818 6.79493,17.69984 4.36452,19.06135 17.8144,19.08687 0,0 47.08094,0 47.08094,0 8.04193,0 18.05617,-0.81443 25.44915,2.5067 10.91769,4.89901 13.75526,14.49334 13.99704,25.48733 0,0 15.26948,-1.05615 15.26948,-1.05615 6.36229,-0.61072 15.43492,0.53445 18.65423,-6.70581 1.57786,-3.57564 -1.70509,-19.01055 -2.11228,-24.04946 0,0 35.62883,1.05618 35.62883,1.05618 0,0 11.80839,1.47596 11.80839,1.47596 0,0 3.62651,11.46493 3.62651,11.46493 0,0 2.37949,25.44905 2.37949,25.44905 0,0 81.43729,0 81.43729,0 3.1557,0 7.29117,-0.2417 10.10332,1.298 5.82785,3.1938 6.89672,12.4065 2.0741,16.9618 -3.90644,3.6902 -9.74703,3.3593 -14.72233,3.372 0,0 -276.12331,0 -276.12331,0 0,0 0,13.99706 0,13.99706 0.0127,3.232 -0.40718,8.2455 2.03594,10.6887 2.21406,2.2141 6.46408,2.0231 9.41618,2.3921 0,0 22.90423,2.405 22.90423,2.405 0,0 15.2695,1.9722 15.2695,1.9722 0,0 11.45212,1.0307 11.45212,1.0307 11.98655,2.7486 20.80468,11.7702 23.9731,23.5024 1.53967,5.6624 1.46333,8.271 1.47606,13.997 0,0 0,127.2457 0,127.2457 -0.0255,15.0914 -4.45361,28.923 -20.35934,33.7965 -3.34655,1.018 -6.66767,1.7561 -10.17965,1.3997 -18.03074,-1.7813 -25.42371,-14.6078 -25.44915,-31.3788 0,0 0,-106.8864 0,-106.8864 0,0 -8.90721,0 -8.90721,0 0,0 0,104.3415 0,104.3415 -0.0255,17.2164 -8.32186,33.9237 -27.99406,33.9237 -18.43792,0 -27.9686,-14.5187 -27.99404,-31.3788 0,0 0,-106.8864 0,-106.8864 0,0 -40.71865,0 -40.71865,0 z"
       id="Auswahl-5"
       inkscape:connector-curvature="0"
       style="fill:#ffffff;stroke:#000000;stroke-width:1.2724576;fill-opacity:1" />
  </g>
</svg>
